<svg xmlns="http://www.w3.org/2000/svg" viewBox="0 0 113.9 17.5" enable-background="new 0 0 113.9 17.5"><path d="M10.5.3h3.8v16.9h-3.8v-6.7H3.8v6.7H0V.3h3.8v7.1h6.7V.3zM46.1 15c-1.7 1.7-3.8 2.5-6.3 2.5s-4.6-.8-6.3-2.5c-1.7-1.7-2.6-3.7-2.6-6.2s.9-4.6 2.6-6.2C35.2.8 37.3 0 39.8 0s4.6.8 6.3 2.5c1.7 1.7 2.6 3.7 2.6 6.2s-.9 4.6-2.6 6.3zm-1.3-6.2c0-1.5-.5-2.8-1.5-3.9s-2.2-1.6-3.6-1.6-2.6.5-3.6 1.6-1.5 2.4-1.5 3.9.5 2.8 1.5 3.8c1 1.1 2.2 1.6 3.6 1.6s2.6-.5 3.6-1.6 1.5-2.3 1.5-3.8zM111.3 15c-1.7 1.7-3.8 2.5-6.3 2.5s-4.6-.8-6.3-2.5c-1.7-1.7-2.6-3.7-2.6-6.2s.9-4.6 2.6-6.2C100.4.9 102.5.1 105 .1s4.6.8 6.3 2.5c1.7 1.7 2.6 3.7 2.6 6.2s-.9 4.5-2.6 6.2zM110 8.8c0-1.5-.5-2.8-1.5-3.9s-2.2-1.6-3.6-1.6-2.6.5-3.6 1.6-1.3 2.3-1.3 3.9c0 1.5.5 2.8 1.5 3.8s2.2 1.6 3.6 1.6 2.6-.5 3.6-1.6 1.3-2.3 1.3-3.8z" fill="#fff"/><path d="M74.6.3h4.9S73.1 8 72.6 8.8l6.9 8.5h-4.9L69 10.5V17.2h-3.8V.3H69V7L74.6.3z" fill="#fff"/></svg>